<svg version="1.1" width="512px" height="512px" viewBox="0 0 512 512" xmlns="http://www.w3.org/2000/svg">
    <style>
        g g {
            fill: #1E293B
        }

        @media (prefers-color-scheme: dark) {
            g g {
                fill: #fff
            }
        }
    </style>
    <g fill="none" fill-rule="evenodd">
        <g transform="translate(38 58)" fill-rule="nonzero">
            <path
                d="m410.17 43.745-27.97-11.665v188.11l50.722-122.07c8.558-21.248-1.2524-45.62-22.752-54.369m-407.03 77.075 103.53 248.93c6.4707 16.04 21.708 25.831 37.781 26.247 5.427 0 11.063-1.0416 16.49-3.333l153.84-63.535c15.655-6.4577 25.257-21.873 25.674-37.288 0.20873-5.4161-0.83493-11.457-2.7135-16.873l-104.37-248.93c-6.0532-16.04-21.499-25.831-37.781-26.039-5.427 0-10.854 1.2499-16.072 3.1247l-153.63 63.535c-21.291 8.7491-31.519 33.122-22.752 54.161m337.1-79.158c0-23.009-18.691-41.662-41.746-41.662h-30.266l72.013 173.73" />
        </g>
    </g>
</svg>